<?xml version="1.0" encoding="UTF-8"?>
<svg version="1.1" xmlns="http://www.w3.org/2000/svg" width="362" height="220">
<path d="M0 0 C119.46 0 238.92 0 362 0 C362 72.6 362 145.2 362 220 C242.54 220 123.08 220 0 220 C0 147.4 0 74.8 0 0 Z " fill="#313131" transform="translate(0,0)"/>
<path d="M0 0 C0 21.12 0 42.24 0 64 C12.54 64.33 25.08 64.66 38 65 C38 65.33 38 65.66 38 66 C24.47 66 10.94 66 -3 66 C-3 45.87 -3 25.74 -3 5 C-9.27 8.63 -15.54 12.26 -22 16 C-26.455 18.475 -26.455 18.475 -31 21 C-31.92152653 24.88835299 -32.19730713 27.44572865 -32.09765625 31.33203125 C-32.10711777 32.32377853 -32.11657928 33.31552582 -32.12632751 34.33732605 C-32.14688575 37.49724067 -32.10552571 40.65287419 -32.0625 43.8125 C-32.06557496 45.95769204 -32.07268973 48.10288236 -32.08398438 50.24804688 C-32.10281803 55.49957896 -32.070856 60.74895336 -32 66 C-32.99 66 -33.98 66 -35 66 C-38.23175574 26.00390822 -38.23175574 26.00390822 -33.26269531 16.77246094 C-28.84274404 12.36415644 -23.54772682 10.47143402 -17.62158203 8.81542969 C-13.63392938 7.57509072 -10.32654588 5.45933985 -6.8125 3.25 C-1.13821138 0 -1.13821138 0 0 0 Z " fill="#DADADA" transform="translate(203,57)"/>
<path d="M0 0 C0.66 0.33 1.32 0.66 2 1 C0.10600285 2.75202288 -1.79011738 4.50164978 -3.6875 6.25 C-4.21794922 6.74113281 -4.74839844 7.23226562 -5.29492188 7.73828125 C-6.08286133 8.46337891 -6.08286133 8.46337891 -6.88671875 9.203125 C-7.36326904 9.64301758 -7.83981934 10.08291016 -8.33081055 10.53613281 C-10 12 -10 12 -12.65039062 13.5078125 C-16.34596139 17.42763652 -15.72733299 21.47119803 -15.70703125 26.671875 C-15.72215256 27.70942932 -15.73727386 28.74698364 -15.75285339 29.815979 C-15.79581634 33.12753893 -15.80457701 36.43818884 -15.8125 39.75 C-15.83563751 41.99611809 -15.86100127 44.24221443 -15.88867188 46.48828125 C-15.95579876 51.99268614 -15.97667177 57.494538 -16 63 C-30.19 63 -44.38 63 -59 63 C-59 62.67 -59 62.34 -59 62 C-55.89607966 61.82704523 -52.79201441 61.6616707 -49.6875 61.5 C-48.84509766 61.45230469 -48.00269531 61.40460938 -47.13476562 61.35546875 C-37.75912912 60.87816362 -28.3846535 60.95595495 -19 61 C-19.06807861 59.69442139 -19.13615723 58.38884277 -19.20629883 57.04370117 C-19.44325812 52.15639094 -19.59140153 47.26957516 -19.71411133 42.37817383 C-19.77912334 40.26988121 -19.8675756 38.16216657 -19.98071289 36.0559082 C-20.94664101 17.59837678 -20.94664101 17.59837678 -16.25927734 12.27197266 C-13.11370449 9.37107617 -9.64321711 7.22735483 -6 5 C-3.94009373 3.39278516 -1.97657583 1.71068222 0 0 Z " fill="#DDDDDD" transform="translate(179,60)"/>
<path d="M0 0 C0.99 0 1.98 0 3 0 C3 19.14 3 38.28 3 58 C21.81 58.495 21.81 58.495 41 59 C41 59.33 41 59.66 41 60 C27.47 60 13.94 60 0 60 C0 40.2 0 20.4 0 0 Z " fill="#E8E8E8" transform="translate(200,63)"/>
<path d="M0 0 C0 0.66 0 1.32 0 2 C-1.87890625 3.375 -1.87890625 3.375 -4.5625 5 C-10.16435479 8.45010067 -15.6217797 12.07737497 -21.04711914 15.79882812 C-25.7812553 19 -25.7812553 19 -28 19 C-28 34.51 -28 50.02 -28 66 C-28.99 66 -29.98 66 -31 66 C-31.43406857 59.51039405 -31.72983062 53.02455325 -31.93383789 46.52368164 C-32.01890793 44.31783331 -32.13462885 42.11293224 -32.2824707 39.91040039 C-33.44653823 22.11104267 -33.44653823 22.11104267 -29.38833618 16.95059204 C-25.40190534 13.46576549 -20.94616664 11.17046137 -16.13801575 9.02070618 C-12.85271128 7.45227499 -10.02736352 5.42009307 -7.0625 3.3125 C-2.23647295 0 -2.23647295 0 0 0 Z " fill="#D4D4D4" transform="translate(195,57)"/>
<path d="M0 0 C1.875 1.0625 1.875 1.0625 3 3 C3.4375 6.5 3.4375 6.5 3 10 C0.77728061 12.65016543 -0.6458146 12.94940209 -4.0625 13.4375 C-7 13 -7 13 -8.9375 11.4375 C-10.45826219 7.94869263 -9.94135898 5.63095606 -9 2 C-5.53076119 -0.31282587 -4.07794425 -0.42478586 0 0 Z " fill="#CACACA" transform="translate(125,143)"/>
<path d="M0 0 C3.5625 0.3125 3.5625 0.3125 5.5 1.375 C7.1765629 4.43226176 6.92778977 6.9031288 6.5625 10.3125 C5.4375 12.25 5.4375 12.25 3.5625 13.3125 C-0.51544425 13.73728586 -1.96826119 13.62532587 -5.4375 11.3125 C-5.80078125 9.21875 -5.80078125 9.21875 -5.75 6.8125 C-5.74613281 6.0184375 -5.74226562 5.224375 -5.73828125 4.40625 C-5.18714525 0.56977086 -3.67799191 0.3343629 0 0 Z " fill="#CBCBCB" transform="translate(261.4375,142.6875)"/>
<path d="M0 0 C0.99 0.66 1.98 1.32 3 2 C3.65158371 8.84162896 3.65158371 8.84162896 1.875 12 C-0.89815624 13.47901666 -2.91184125 13.38601984 -6 13 C-7.875 11.9375 -7.875 11.9375 -9 10 C-9.63316583 4.09045226 -9.63316583 4.09045226 -7.875 1.0625 C-5.14015561 -0.48724515 -3.0875593 -0.32162076 0 0 Z " fill="#D8D8D8" transform="translate(208,143)"/>
<path d="M0 0 C4.875 1.75 4.875 1.75 6 4 C8.02463255 4.65213292 8.02463255 4.65213292 10 5 C9.01 5.33 8.02 5.66 7 6 C6.67 9.96 6.34 13.92 6 18 C5.67 18 5.34 18 5 18 C4.67 15.03 4.34 12.06 4 9 C3.34 9 2.68 9 2 9 C1.01 10.485 1.01 10.485 0 12 C-0.66 11.67 -1.32 11.34 -2 11 C-2.33 12.32 -2.66 13.64 -3 15 C-3.33 14.01 -3.66 13.02 -4 12 C-4.99 12 -5.98 12 -7 12 C-7 11.01 -7 10.02 -7 9 C-6.01 9 -5.02 9 -4 9 C-4 7.68 -4 6.36 -4 5 C-7.63 5 -11.26 5 -15 5 C-15 6.65 -15 8.3 -15 10 C-15.66 9.34 -16.32 8.68 -17 8 C-16.67 6.68 -16.34 5.36 -16 4 C-11.71 4 -7.42 4 -3 4 C-3 4.66 -3 5.32 -3 6 C-2.34 6 -1.68 6 -1 6 C-0.67 4.02 -0.34 2.04 0 0 Z " fill="#292929" transform="translate(174,137)"/>
<path d="M0 0 C6.0546875 -0.1953125 6.0546875 -0.1953125 8 0 C8.66 0.66 9.32 1.32 10 2 C9.835 3.11375 9.67 4.2275 9.5 5.375 C9.00318436 8.97691339 9.01916027 10.0870004 11 13 C9.68 13 8.36 13 7 13 C6.71125 12.360625 6.4225 11.72125 6.125 11.0625 C5.17176549 8.84793921 5.17176549 8.84793921 3 8 C3 9.65 3 11.3 3 13 C2.01 13 1.02 13 0 13 C0 8.71 0 4.42 0 0 Z " fill="#ADADAD" transform="translate(139,143)"/>
<path d="M0 0 C0.33 0 0.66 0 1 0 C1.33 18.48 1.66 36.96 2 56 C14.87 56.495 14.87 56.495 28 57 C28 57.33 28 57.66 28 58 C18.76 58 9.52 58 0 58 C0 38.86 0 19.72 0 0 Z " fill="#262626" transform="translate(204,63)"/>
<path d="M0 0 C3.375 -0.125 3.375 -0.125 7 0 C7.66 0.66 8.32 1.32 9 2 C8.625 5.125 8.625 5.125 8 8 C6.35 8 4.7 8 3 8 C3 9.65 3 11.3 3 13 C2.01 13 1.02 13 0 13 C0 8.71 0 4.42 0 0 Z " fill="#B9B9B9" transform="translate(96,143)"/>
<path d="M0 0 C-0.32342377 0.86613922 -0.64684753 1.73227844 -0.98007202 2.62466431 C-1.98348192 5.9453353 -2.27362423 8.55331628 -2.31884766 12.00537109 C-2.33871735 13.16612152 -2.35858704 14.32687195 -2.37905884 15.52279663 C-2.39061005 16.76050812 -2.40216125 17.9982196 -2.4140625 19.2734375 C-2.43342865 20.55231842 -2.4527948 21.83119934 -2.4727478 23.14883423 C-2.52228279 26.53207162 -2.56360235 29.91520382 -2.60089111 33.29858398 C-2.64105483 36.75774773 -2.69209044 40.21674963 -2.7421875 43.67578125 C-2.83810704 50.45041644 -2.9231921 57.22512263 -3 64 C-3.33 64 -3.66 64 -4 64 C-4 43.21 -4 22.42 -4 1 C-2 0 -2 0 0 0 Z " fill="#393939" transform="translate(207,57)"/>
<path d="M0 0 C0.66 0.66 1.32 1.32 2 2 C-2.32271531 4.68426677 -6.65765071 7.34768982 -11 10 C-11.58120605 10.35707031 -12.16241211 10.71414062 -12.76123047 11.08203125 C-14.39808204 12.08412783 -16.04264588 13.07359377 -17.6875 14.0625 C-19.14736328 14.94615234 -19.14736328 14.94615234 -20.63671875 15.84765625 C-21.41660156 16.22792969 -22.19648438 16.60820313 -23 17 C-23.66 16.67 -24.32 16.34 -25 16 C-8.29157175 4.29384966 -8.29157175 4.29384966 0 0 Z " fill="#222222" transform="translate(199,56)"/>
<path d="M0 0 C2.31 0 4.62 0 7 0 C7 0.66 7 1.32 7 2 C5.68 2 4.36 2 3 2 C3 2.99 3 3.98 3 5 C4.32 5 5.64 5 7 5 C7 5.99 7 6.98 7 8 C5.68 8 4.36 8 3 8 C3 9.65 3 11.3 3 13 C2.01 13 1.02 13 0 13 C0 8.71 0 4.42 0 0 Z " fill="#EEEEEE" transform="translate(181,143)"/>
<path d="M0 0 C2.70313576 -0.21917317 4.43958382 -0.32851983 6.8125 1.0625 C8.67036623 4.09375543 8.37133265 6.53422859 8 10 C6.875 11.9375 6.875 11.9375 5 13 C1.8125 13.1875 1.8125 13.1875 -1 13 C-1 12.01 -1 11.02 -1 10 C0.65 9.67 2.3 9.34 4 9 C4 7.35 4 5.7 4 4 C1.525 3.01 1.525 3.01 -1 2 C-0.67 1.34 -0.34 0.68 0 0 Z " fill="#E8E8E8" transform="translate(260,143)"/>
<path d="M0 0 C1 2 1 2 0.25 5.1875 C-1.85403897 9.91911815 -5.98385453 11.90352345 -10.30859375 14.421875 C-12.68561896 15.81566047 -14.8354247 17.30108984 -17 19 C-17.66 18.67 -18.32 18.34 -19 18 C-18.56655273 17.63237549 -18.13310547 17.26475098 -17.68652344 16.88598633 C-15.70360525 15.19955203 -13.72679195 13.50611011 -11.75 11.8125 C-11.06808594 11.23435547 -10.38617188 10.65621094 -9.68359375 10.06054688 C-6.05160878 6.93986076 -2.84305438 3.89088113 0 0 Z " fill="#3F3F3F" transform="translate(183,57)"/>
<path d="M0 0 C0.99 0 1.98 0 3 0 C3 3.3 3 6.6 3 10 C4.65 10.33 6.3 10.66 8 11 C8 11.66 8 12.32 8 13 C5.36 13 2.72 13 0 13 C0 8.71 0 4.42 0 0 Z " fill="#D1D1D1" transform="translate(223,143)"/>
<path d="M0 0 C5.36842105 -0.35789474 5.36842105 -0.35789474 7.875 1.0625 C9.66235303 4.14071911 9.43386742 6.52906068 9 10 C7.1875 11.9375 7.1875 11.9375 5 13 C4.01 13 3.02 13 2 13 C2 12.34 2 11.68 2 11 C3.32 11 4.64 11 6 11 C5.67 8.69 5.34 6.38 5 4 C1.95086772 2.98888907 1.95086772 2.98888907 -1 4 C-0.67 2.68 -0.34 1.36 0 0 Z " fill="#EAEAEA" transform="translate(119,143)"/>
<path d="M0 0 C3.3 0 6.6 0 10 0 C10 0.66 10 1.32 10 2 C8.68 2 7.36 2 6 2 C6 5.63 6 9.26 6 13 C5.01 13 4.02 13 3 13 C3 9.37 3 5.74 3 2 C2.01 2 1.02 2 0 2 C0 1.34 0 0.68 0 0 Z " fill="#E6E6E6" transform="translate(160,143)"/>
<path d="M0 0 C0.66 0 1.32 0 2 0 C2 0.66 2 1.32 2 2 C0.015625 3.4453125 0.015625 3.4453125 -2.75 5.125 C-8.93304618 8.94417677 -14.96778293 12.94693966 -21 17 C-21.66 16.34 -22.32 15.68 -23 15 C-22.00818726 14.37170288 -22.00818726 14.37170288 -20.99633789 13.73071289 C-18.01754108 11.84264706 -15.04000589 9.9526009 -12.0625 8.0625 C-11.02158203 7.40314453 -9.98066406 6.74378906 -8.90820312 6.06445312 C-7.42416992 5.12182617 -7.42416992 5.12182617 -5.91015625 4.16015625 C-4.99371338 3.57886963 -4.07727051 2.99758301 -3.13305664 2.39868164 C-1.10350026 1.17136069 -1.10350026 1.17136069 0 0 Z " fill="#CACACA" transform="translate(193,57)"/>
<path d="M0 0 C1.98 0 3.96 0 6 0 C4.68 0.33 3.36 0.66 2 1 C2 2.32 2 3.64 2 5 C2.99 5 3.98 5 5 5 C5 5.66 5 6.32 5 7 C5.639375 7.268125 6.27875 7.53625 6.9375 7.8125 C9 9 9 9 10 12 C8.68 12 7.36 12 6 12 C5.71125 11.360625 5.4225 10.72125 5.125 10.0625 C4.17176549 7.84793921 4.17176549 7.84793921 2 7 C2 8.65 2 10.3 2 12 C1.34 12 0.68 12 0 12 C0 8.04 0 4.08 0 0 Z " fill="#EAEAEA" transform="translate(140,144)"/>
<path d="M0 0 C-1 2 -1 2 -3 2.6875 C-3.66 3.120625 -4.32 3.55375 -5 4 C-5.81870185 7.56206661 -5.81870185 7.56206661 -6 11 C-4.35 11.33 -2.7 11.66 -1 12 C-1 12.33 -1 12.66 -1 13 C-3.70313576 13.21917317 -5.43958382 13.32851983 -7.8125 11.9375 C-9.67036623 8.90624457 -9.37133265 6.46577141 -9 3 C-6.82246161 -0.75020501 -4.02857537 -0.26857169 0 0 Z " fill="#E3E3E3" transform="translate(208,143)"/>
<path d="M0 0 C1.093125 0.226875 2.18625 0.45375 3.3125 0.6875 C2.3225 1.3475 1.3325 2.0075 0.3125 2.6875 C-0.27231121 5.57345946 -0.27231121 5.57345946 -0.375 8.8125 C-0.44074219 9.90820312 -0.50648438 11.00390625 -0.57421875 12.1328125 C-0.61160156 12.97585937 -0.64898437 13.81890625 -0.6875 14.6875 C-1.0175 14.6875 -1.3475 14.6875 -1.6875 14.6875 C-2.0175 11.0575 -2.3475 7.4275 -2.6875 3.6875 C-4.0075 3.3575 -5.3275 3.0275 -6.6875 2.6875 C-4.58035839 -0.41123767 -3.86755884 -0.32775922 0 0 Z M-7.6875 3.6875 C-6.6975 4.1825 -6.6975 4.1825 -5.6875 4.6875 C-6.6775 5.1825 -6.6775 5.1825 -7.6875 5.6875 C-7.6875 5.0275 -7.6875 4.3675 -7.6875 3.6875 Z M-10.6875 4.6875 C-9.6975 5.0175 -8.7075 5.3475 -7.6875 5.6875 C-8.0175 7.6675 -8.3475 9.6475 -8.6875 11.6875 C-9.3475 11.3575 -10.0075 11.0275 -10.6875 10.6875 C-11.375 8.1875 -11.375 8.1875 -11.6875 5.6875 C-11.3575 5.3575 -11.0275 5.0275 -10.6875 4.6875 Z " fill="#242424" transform="translate(222.6875,140.3125)"/>
<path d="M0 0 C4.21912747 0.4794463 6.79663178 1.16625119 10 4 C8.88625 4.350625 7.7725 4.70125 6.625 5.0625 C4.66818521 5.80330632 4.66818521 5.80330632 3 7 C1.46954015 10.55892288 1.46954015 10.55892288 1 14 C-0.1875 12.375 -0.1875 12.375 -1 10 C0.375 6.75 0.375 6.75 2 4 C1.01 4.33 0.02 4.66 -1 5 C-0.67 3.35 -0.34 1.7 0 0 Z " fill="#272727" transform="translate(114,138)"/>
<path d="M0 0 C2.0625 0.4375 2.0625 0.4375 4 1 C5.125 5.75 5.125 5.75 4 8 C2.35 7.67 0.7 7.34 -1 7 C-1.04254356 5.00045254 -1.04080783 2.99958364 -1 1 C-0.67 0.67 -0.34 0.34 0 0 Z " fill="#363636" transform="translate(120,145)"/>
<path d="M0 0 C1.32 0.66 2.64 1.32 4 2 C4 3.65 4 5.3 4 7 C2.34385343 7.38218767 0.67542976 7.71395102 -1 8 C-2 7 -2 7 -2.1875 4.5625 C-2 2 -2 2 0 0 Z " fill="#313131" transform="translate(204,145)"/>
<path d="M0 0 C0.99 0 1.98 0 3 0 C3 4.29 3 8.58 3 13 C2.01 13 1.02 13 0 13 C0 8.71 0 4.42 0 0 Z " fill="#E4E4E4" transform="translate(241,143)"/>
<path d="M0 0 C1.67542976 0.28604898 3.34385343 0.61781233 5 1 C5 2.65 5 4.3 5 6 C3.34385343 6.38218767 1.67542976 6.71395102 0 7 C-1 6 -1 6 -1.125 3.5 C-1 1 -1 1 0 0 Z " fill="#2F2F2F" transform="translate(260,146)"/>
<path d="M0 0 C0 0.99 0 1.98 0 3 C-1.74122549 4.03572896 -3.49336595 5.0531252 -5.25 6.0625 C-6.71179688 6.91521484 -6.71179688 6.91521484 -8.203125 7.78515625 C-11 9 -11 9 -13.359375 8.68359375 C-13.90078125 8.45800781 -14.4421875 8.23242188 -15 8 C-12.8782637 6.66121428 -10.75294812 5.32884524 -8.625 4 C-8.02171875 3.6184375 -7.4184375 3.236875 -6.796875 2.84375 C-2.2265625 0 -2.2265625 0 0 0 Z " fill="#EBEBEB" transform="translate(183,69)"/>
<path d="M0 0 C0.66 0.99 1.32 1.98 2 3 C-0.2863012 4.36402043 -2.57821749 5.71634274 -4.875 7.0625 C-5.85146484 7.64741211 -5.85146484 7.64741211 -6.84765625 8.24414062 C-8.53065725 9.22444533 -10.26296199 10.11898432 -12 11 C-12.66 10.67 -13.32 10.34 -14 10 C-9.38 6.7 -4.76 3.4 0 0 Z " fill="#2B2B2B" transform="translate(188,62)"/>
<path d="M0 0 C3.375 -0.125 3.375 -0.125 7 0 C7.66 0.66 8.32 1.32 9 2 C8.625 4.125 8.625 4.125 8 6 C7.67 4.68 7.34 3.36 7 2 C5.35 2 3.7 2 2 2 C2 3.65 2 5.3 2 7 C0 5 0 5 -0.125 2.375 C-0.08375 1.59125 -0.0425 0.8075 0 0 Z " fill="#EDEDED" transform="translate(96,143)"/>
<path d="M0 0 C1.32 0.66 2.64 1.32 4 2 C3.67 3.65 3.34 5.3 3 7 C1.68 6.67 0.36 6.34 -1 6 C-0.67 4.02 -0.34 2.04 0 0 Z " fill="#414141" transform="translate(142,151)"/>
<path d="M0 0 C0.66 0 1.32 0 2 0 C2.33 1.98 2.66 3.96 3 6 C4.65 6.33 6.3 6.66 8 7 C8 7.33 8 7.66 8 8 C3.55063291 8.36075949 3.55063291 8.36075949 1.1875 6.8125 C-0.36678206 4.44017475 -0.22537188 2.77958655 0 0 Z " fill="#EEEEEE" transform="translate(199,148)"/>
<path d="M0 0 C0.33 0.66 0.66 1.32 1 2 C2.32 2 3.64 2 5 2 C5 2.99 5 3.98 5 5 C3.68 5 2.36 5 1 5 C1 6.65 1 8.3 1 10 C0.67 10 0.34 10 0 10 C-1.125 2.25 -1.125 2.25 0 0 Z " fill="#C1C1C1" transform="translate(183,146)"/>
<path d="M0 0 C0.99 0.33 1.98 0.66 3 1 C3 1.66 3 2.32 3 3 C3.66 3 4.32 3 5 3 C4.67 3.99 4.34 4.98 4 6 C2.68 5.34 1.36 4.68 0 4 C0 2.68 0 1.36 0 0 Z " fill="#3A3A3A" transform="translate(265,140)"/>
</svg>
